<svg id="visual" viewBox="0 0 2000 1000" width="2000" height="1000" xmlns="http://www.w3.org/2000/svg" xmlns:xlink="http://www.w3.org/1999/xlink" version="1.1"><rect x="0" y="0" width="2000" height="1000" fill="#FFFFFF"></rect><path d="M0 317L37 346.5C74 376 148 435 222 438.5C296 442 370 390 444.2 383.7C518.3 377.3 592.7 416.7 666.8 445.3C741 474 815 492 889 503.2C963 514.3 1037 518.7 1111 473.3C1185 428 1259 333 1333.2 330.2C1407.3 327.3 1481.7 416.7 1555.8 433C1630 449.3 1704 392.7 1778 377.5C1852 362.3 1926 388.7 1963 401.8L2000 415L2000 0L1963 0C1926 0 1852 0 1778 0C1704 0 1630 0 1555.8 0C1481.7 0 1407.3 0 1333.2 0C1259 0 1185 0 1111 0C1037 0 963 0 889 0C815 0 741 0 666.8 0C592.7 0 518.3 0 444.2 0C370 0 296 0 222 0C148 0 74 0 37 0L0 0Z" fill="#0066FF" stroke-linecap="round" stroke-linejoin="miter"></path></svg>