<svg id="visual" viewBox="0 0 2000 1000" width="2000" height="1000" xmlns="http://www.w3.org/2000/svg" xmlns:xlink="http://www.w3.org/1999/xlink" version="1.1"><rect x="0" y="0" width="2000" height="1000" fill="#FFFFFF"></rect><path d="M1170 1000L1201.2 958.3C1232.3 916.7 1294.7 833.3 1334.3 750C1374 666.7 1391 583.3 1383.5 500C1376 416.7 1344 333.3 1356 250C1368 166.7 1424 83.3 1452 41.7L1480 0L2000 0L2000 41.7C2000 83.3 2000 166.7 2000 250C2000 333.3 2000 416.7 2000 500C2000 583.3 2000 666.7 2000 750C2000 833.3 2000 916.7 2000 958.3L2000 1000Z" fill="#1ecbe1" stroke-linecap="round" stroke-linejoin="miter"></path></svg>